<svg xmlns="http://www.w3.org/2000/svg" width="512" height="512">
  <path fill="#00BCD4" d="M267.75 0c-5.77 0-11.48.86-16.96 2.55a7.8 7.8 0 0 0 4.61 14.91 41.78 41.78 0 0 1 54.1 39.9 41.8 41.8 0 0 1-52.16 40.43 7.8 7.8 0 0 0-9.73 7.06 24.99 24.99 0 0 1-24.9 23.34 24.99 24.99 0 0 1-24.96-24.96 25.07 25.07 0 0 1 22.9-24.86 7.8 7.8 0 0 0 6.88-9.86c-1.01-3.65-1.52-7.4-1.52-11.16 0-8.82 2.73-17.25 7.88-24.4a7.8 7.8 0 0 0-12.65-9.14 56.94 56.94 0 0 0-10.4 40.64c-16.63 5.14-28.7 20.78-28.7 38.78a40.61 40.61 0 0 0 40.57 40.57 40.67 40.67 0 0 0 39-29.41 57.42 57.42 0 0 0 63.4-57.04A57.42 57.42 0 0 0 267.74 0zM137.05 275.74H110.7a7.8 7.8 0 1 0 0 15.6h26.36a7.8 7.8 0 1 0 0-15.6z"/>
  <path fill="#00BCD4" d="M481.63 321.9c-10.36-18.7-29.12-29.86-50.18-29.86l-.57.02a83.01 83.01 0 0 0-1.92-5.42c-2.99-7.52-9.94-15.02-19.08-20.57a7.8 7.8 0 0 0-8.1 13.35c6.11 3.7 10.97 8.68 12.68 12.98 4.05 10.2 6.27 21.62 7.5 32.5 1.19 10.67 1.05 21.76-2.14 32.1a49.59 49.59 0 0 1-5.1 11.35l-.05.1c-4.28 6.8-10.35 11.17-18.46 13.35-8.7 2.33-16.39 2.23-23.31-.33l.18-.44a70.54 70.54 0 0 0 4.51-42.76c-1.3-6.24-3.71-12.15-5.97-18.1L362.81 297a56.1 56.1 0 0 0-9.18-15.76 38.86 38.86 0 0 1 21.55-8.52 7.8 7.8 0 0 0-1.13-15.57c-11.78.86-22.77 5.52-32.13 13.55a55.77 55.77 0 0 0-31.27-9.67 55.3 55.3 0 0 0-23.89 5.41l-30.47 14.48c-1.4.66-2.76 1.4-4.1 2.18l8.15-69.49h13.28a7.8 7.8 0 0 0 7.45-10.1l-10.4-33.63a7.8 7.8 0 0 0-7.46-5.5H40.24a7.8 7.8 0 0 0-7.45 5.5l-10.4 33.62a7.8 7.8 0 0 0 7.45 10.11h13.28l8.3 70.85 6.94 59.21L72.3 462.58a7.8 7.8 0 0 0 7.75 6.9h97.16c9.2 20.33 29.7 36.35 52.99 41.18 4.23.88 8.64 1.34 12.76 1.34 18.88 0 30.3-9.37 30.57-25.08.16-9.78-3.33-18.88-7.41-27.22 6.9-1.19 13.45-4 19.56-8.4 10.85-7.83 17.86-17.43 20.95-28.6a69.43 69.43 0 0 0 32.48-6.74 69.85 69.85 0 0 0 25.73-20.93 47.94 47.94 0 0 0 19.54 4.05c5.1 0 10.39-.73 15.88-2.2a46.77 46.77 0 0 0 18.87-9.84c3.89 8.43 8.74 16.88 16.42 22.93 4.7 3.7 9.79 5.58 15.1 5.58 16.8 0 27.72-18.5 30.67-24.17 11.41-21.95 11.53-49.22.31-69.47zM50.06 198h-9.64L46 179.97h211.46l5.57 18.02H50.06zm122.47 255.87H87l-8.5-72.54h99.27c-.05.9-.08 1.78-.1 2.66-.04 7.5 1.4 14.5 4.43 19.9l.03.06.39.69c.75 1.3 1.6 2.69 2.55 4.14a56.17 56.17 0 0 0-12.54 45.09zm11.63-97.04a62.24 62.24 0 0 0-3.59 8.9H76.67l-3-25.52-5.73-48.87h11.54a7.8 7.8 0 1 0 0-15.6H66.1l-7.28-62.14h185.8l-7.29 62.14h-69.07a7.8 7.8 0 1 0 0 15.6h67.24l-.92 7.85a55.76 55.76 0 0 0-4.36 7.37l-.07.14a57 57 0 0 0-5.44 19.17l-.05.46a55.16 55.16 0 0 0-25.5 11.49l-.11.09a56.42 56.42 0 0 0-12.13 13.94c-1 1.62-1.92 3.28-2.77 4.98zm58.8 139.56c-3.07 0-6.39-.35-9.59-1.02-19.24-3.99-36.01-17.4-42.73-34.17-.23-.58-.43-1.17-.64-1.76a41.5 41.5 0 0 1 4.8-37.62c-.3.42 5.96 6.78 6.54 7.4a149 149 0 0 0 8.68 8.53c7.12 6.42 14.96 12.2 23.6 16.4l.11.05c.62.3 1.24.6 1.87.88l.16.07a61.64 61.64 0 0 0 12.6 4.14c4.8 9.09 9.71 18.47 9.56 27.37-.04 2.66-.16 9.73-14.96 9.73zm33.59-57.75c-5.7 4.1-11.61 6.1-18.08 6.1-11.54 0-22.49-6.15-31.37-13l-.05-.04c-9-6.75-16.9-15.26-23.71-24.17l-.23-.3c-3.37-4.4-6.77-8.95-8.48-14.3-1.66-5.23-1.66-10.77-.74-16.14a46.77 46.77 0 0 1 9.01-20.61l.04-.05a39.8 39.8 0 0 1 22.53-14.03h.04c-.26.05 2.1 7.65 2.33 8.27a56 56 0 0 0 4.06 8.75l.02.04c5.5 9.52 10.9 19.12 16.52 28.57a78.55 78.55 0 0 0 4.73 7.15l.5.66a69.39 69.39 0 0 0 34.9 24.1l1.19.35 1.26.37c-2.38 6.98-7.16 13-14.47 18.28zM346.64 392c-4.18 4.02-9 7.36-14.23 9.84a53.95 53.95 0 0 1-23.32 5.28c-19.5 0-37.22-10.65-47.17-27.23l-16.48-28.55a40.11 40.11 0 0 1-5.35-18.41 40.55 40.55 0 0 1 22.9-37.94l30.46-14.47a39.79 39.79 0 0 1 17.2-3.9 40.43 40.43 0 0 1 35.93 22.2c5.48 10.9 9.02 23.12 13.35 34.52l.01.03c7.65 20.18 2.2 43.69-13.3 58.63zm120.83-7.83c-4.82 9.28-11.74 15.77-16.82 15.77-1.75 0-3.53-.74-5.45-2.25-6.99-5.5-11.16-15.24-15.17-24.7l.1-.22.24-.45.32-.67.65-1.4.4-.87c3.92-9.08 5.55-19.03 5.91-28.87.34-9.06-.4-18.16-1.82-27.11-.08-.5-.74-5.6-1-5.63 13.92 1.11 26.15 9.04 33.16 21.7 8.75 15.8 8.55 37.27-.52 54.7z"/>
</svg>
