<svg xmlns="http://www.w3.org/2000/svg" viewBox="0 0 60 60">
  <g fill="#00BCD4">
    <path d="M30 0C13.46 0 0 13.46 0 30s13.46 30 30 30 30-13.46 30-30S46.54 0 30 0zm0 58C14.56 58 2 45.44 2 30S14.56 2 30 2s28 12.56 28 28-12.56 28-28 28z"/>
    <path d="M31 26.02V15.88a1 1 0 1 0-2 0v10.14a4 4 0 0 0-2.86 2.86H19a1 1 0 1 0 0 2h7.14A4 4 0 1 0 31 26.02zm-1 5.86a2 2 0 1 1 0-4 2 2 0 0 1 0 4zM30 9.88a1 1 0 0 0 1-1v-1a1 1 0 1 0-2 0v1a1 1 0 0 0 1 1zM30 49.88a1 1 0 0 0-1 1v1a1 1 0 1 0 2 0v-1a1 1 0 0 0-1-1zM52 28.88h-1a1 1 0 1 0 0 2h1a1 1 0 1 0 0-2zM9 28.88H8a1 1 0 1 0 0 2h1a1 1 0 1 0 0-2zM44.85 13.62l-.7.7a1 1 0 1 0 1.4 1.42l.71-.71a1 1 0 1 0-1.41-1.41zM14.44 44.02l-.7.7a1 1 0 1 0 1.41 1.42l.7-.7a1 1 0 1 0-1.4-1.42zM45.56 44.02a1 1 0 1 0-1.42 1.41l.7.71a1 1 0 0 0 1.42 0 1 1 0 0 0 0-1.41l-.7-.7zM15.15 13.62a1 1 0 1 0-1.41 1.4l.7.72a1 1 0 0 0 1.42 0 1 1 0 0 0 0-1.42l-.7-.7z"/>
  </g>
</svg>
