<svg xmlns="http://www.w3.org/2000/svg" width="512" height="512">
  <path fill="#00BCD4" d="M496.64 170.67H336.31V10.43C336.31 4.9 331.52 0 325.98 0H185.43c-5.55 0-9.74 4.89-9.74 10.43v160.24H14.76c-5.54 0-9.74 4.89-9.74 10.43v140.55c0 5.54 4.2 9.64 9.74 9.64H175.7v171.06c0 5.55 4.2 9.65 9.74 9.65h140.55c5.54 0 10.33-4.1 10.33-9.65V331.3h160.34c5.54 0 10.33-4.1 10.33-9.64V181.1c0-5.54-4.8-10.43-10.34-10.43zm-9.74 140.55H325.98c-5.55 0-9.75 4.88-9.75 10.43v170.27H195.77V321.65c0-5.55-4.79-10.43-10.33-10.43H25.1V190.74h160.33c5.54 0 10.33-4.1 10.33-9.64V20.08h120.48V181.1c0 5.54 4.2 9.64 9.74 9.64H486.9v120.48z"/>
</svg>
