<svg xmlns="http://www.w3.org/2000/svg" viewBox="0 0 469.5 469.5">
  <g fill="#00BCD4">
    <path d="M416.25 97a7.5 7.5 0 0 0 7.5-7.5V36.95c0-20.37-16.9-36.95-37.67-36.95H83.15c-20.97 0-37.4 16.23-37.4 36.95v335.1c0 20.93 16.78 37.95 37.4 37.95h73.6v52a7.5 7.5 0 0 0 10.85 6.7l36.65-18.32 36.65 18.33a7.5 7.5 0 0 0 10.85-6.71v-52.01l134.33-.24a37.73 37.73 0 0 0 37.67-37.7V319.5a7.5 7.5 0 0 0-7.5-7.5h-52.5V97h52.5zm-7.5-60.05V82h-45V37.45A22.49 22.49 0 0 1 386.09 15c12.5 0 22.66 9.85 22.66 21.95zM240.72 340.38a7.54 7.54 0 0 0-2.63 2.34 52.36 52.36 0 0 1-68.67-1.43 52.65 52.65 0 0 1-17.32-38.94c0-28.95 23.55-52.5 52.5-52.5s52.5 23.55 52.5 52.5a52.5 52.5 0 0 1-16.38 38.03zm-3.97 109.49l-29.15-14.58a7.5 7.5 0 0 0-6.7 0l-29.15 14.58V361.3a67.28 67.28 0 0 0 65 .38v88.19zm15-99.27a67.52 67.52 0 0 0 20.35-48.25c0-37.22-30.28-67.5-67.5-67.5s-67.5 30.28-67.5 67.5c0 17.8 7.12 34.94 19.65 47.57V395h-73.6c-12.35 0-22.4-10.3-22.4-22.95V36.95c0-12.3 9.84-21.95 22.4-21.95h273.1a37.25 37.25 0 0 0-7.5 22.45v334.6c0 8.54 2.85 16.42 7.63 22.75l-104.63.19V350.6zm157-23.6v45.05c0 12.3-10.37 22.69-22.66 22.7-12.32-.06-22.34-10.23-22.34-22.7V327h45z"/>
    <path d="M204.6 264.85c-20.68 0-37.5 16.82-37.5 37.5s16.82 37.5 37.5 37.5 37.5-16.82 37.5-37.5-16.82-37.5-37.5-37.5zm0 60c-12.4 0-22.5-10.1-22.5-22.5s10.1-22.5 22.5-22.5 22.5 10.1 22.5 22.5-10.1 22.5-22.5 22.5zM304.75 152h-200a7.5 7.5 0 0 0 0 15h200a7.5 7.5 0 0 0 0-15zM274.75 182h-140a7.5 7.5 0 0 0 0 15h140a7.5 7.5 0 0 0 0-15zM304.75 122h-30a7.5 7.5 0 0 0 0 15h30a7.5 7.5 0 0 0 0-15zM104.75 137h140a7.5 7.5 0 0 0 0-15h-140a7.5 7.5 0 0 0 0 15zM130 95.59a7.47 7.47 0 0 0 10.52-1.31l17.42-22.4 17.41 22.4a7.5 7.5 0 0 0 11.84 0l17.42-22.4 17.4 22.4a7.5 7.5 0 0 0 11.85 0l17.4-22.4 17.42 22.4a7.5 7.5 0 1 0 11.84-9.22l-23.33-30a7.5 7.5 0 0 0-11.84 0l-17.41 22.4-17.41-22.4a7.5 7.5 0 0 0-11.84 0l-17.42 22.4-17.41-22.4a7.5 7.5 0 0 0-11.84 0l-23.34 30A7.5 7.5 0 0 0 130 95.6z"/>
  </g>
</svg>
