<svg xmlns="http://www.w3.org/2000/svg" viewBox="0 0 33 33">
  <g fill="#00BCD4">
    <path d="M16.5 33C7.4 33 0 25.6 0 16.5S7.4 0 16.5 0 33 7.4 33 16.5 25.6 33 16.5 33zm0-32C7.95 1 1 7.95 1 16.5S7.95 32 16.5 32 32 25.05 32 16.5 25.05 1 16.5 1z"/>
    <path d="M16.5 24.09a13.1 13.1 0 0 1-6.88-1.96l-.4-.24c-.23-.15-.3-.46-.16-.7s.45-.3.7-.15l.39.24a12.05 12.05 0 0 0 12.7 0l.4-.25a.5.5 0 0 1 .52.85l-.4.25a13.09 13.09 0 0 1-6.87 1.96zM14.13 13.35a.5.5 0 0 1-.35-.15l-1.97-1.96-1.97 1.96a.5.5 0 0 1-.7-.7l2.32-2.32c.2-.2.5-.2.7 0l2.32 2.32a.5.5 0 0 1-.35.85zM23.51 13.35a.5.5 0 0 1-.35-.15l-1.97-1.96-1.97 1.96a.5.5 0 0 1-.7-.7l2.31-2.32c.2-.2.52-.2.71 0l2.32 2.32a.5.5 0 0 1-.35.85z"/>
  </g>
</svg>
