<svg xmlns="http://www.w3.org/2000/svg" xml:space="preserve" width="231.039" height="65.6" style="shape-rendering:geometricPrecision;text-rendering:geometricPrecision;image-rendering:optimizeQuality;fill-rule:evenodd;clip-rule:evenodd" viewBox="0 0 6112.92 1735.66"><defs><style>.fil0{fill:#333;fill-rule:nonzero}</style></defs><g id="Слой_x0020_1"><g id="_2401362353184"><path class="fil0" d="M3428.98 921.98v-748.6c0-41.59-6.65-74.45-19.96-98.57-13.31-24.12-27.03-41.59-41.17-52.4a67320.05 67320.05 0 0 1-21.21-16.22h344.35s-7.07 5.41-21.21 16.22c-14.14 10.81-27.86 28.28-41.17 52.4-13.31 24.12-19.96 56.98-19.96 98.57v459.14c-1.67 48.24-17.47 90.66-47.41 127.26l-132.26 162.2zm713.67 271.99h-344.36s7.07-5.41 21.21-16.22c14.14-10.81 27.87-28.28 41.18-52.4 13.3-24.12 19.96-56.98 19.96-98.57V630.02c0-18.3 2.08-38.67 6.24-61.13s14.55-46.17 31.19-71.12l144.73-194.63-2.5 723.64c0 41.59 7.07 74.45 21.21 98.57 14.14 24.12 27.87 41.59 41.18 52.4 13.3 10.81 19.96 16.22 19.96 16.22zm888.34 0h-344.36s7.07-5.41 21.21-16.22c14.14-10.81 27.87-28.28 41.17-52.4 13.31-24.12 19.97-56.98 19.97-98.57v-426.7c0-103.14-6.66-195.47-19.97-276.98-13.3-81.52-43.25-146.81-89.83-195.89-46.58-49.07-116.45-76.1-209.61-81.09h-19.96c-66.54 0-127.68 14.55-183.41 43.66-55.72 29.12-105.22 65.3-148.47 108.55-121.44 143.07-218.75 266.17-291.95 369.31-106.47 138.08-172.18 223.75-197.13 257.02V961.9c0 41.59 7.07 74.45 21.21 98.57 14.14 24.12 27.86 41.17 41.17 51.15 13.31 9.98 19.96 14.97 19.96 14.97s-29.11 3.75-87.33 11.23c-58.23 7.49-116.45 25.37-174.68 53.65v-169.68c-39.92 39.93-93.57 76.94-160.94 111.04-67.38 34.11-145.15 53.65-233.32 58.64h-22.46c-128.09 0-226.66-27.03-295.69-81.1-69.04-54.06-116.45-126.01-142.24-215.84-25.78-89.83-38.67-187.98-38.67-294.45v-426.7c0-41.59-6.66-74.45-19.97-98.57-13.31-24.12-27.03-41.59-41.17-52.4a67320.05 67320.05 0 0 1-21.21-16.22h344.36s-7.07 5.41-21.21 16.22c-14.15 10.81-28.29 28.28-42.43 52.4-14.14 24.12-21.21 56.98-21.21 98.57v426.7c0 101.48 7.07 194.22 21.21 278.23 14.14 84.01 43.67 150.97 88.59 200.87 44.91 49.91 113.95 74.86 207.11 74.86h4.99c173.01 0 334.38-91.49 484.1-274.48 178-221.26 299.44-379.29 364.31-474.12l-2.49-167.18c0-41.59-6.66-74.45-19.96-98.57-13.31-24.12-27.04-41.17-41.18-51.15l-21.21-14.97s29.11-3.75 87.34-11.23c58.22-7.49 116.45-25.37 174.67-53.65v177.17C4168.43 67.74 4298.19 7.85 4449.57 6.19h19.97c129.75 0 229.15 27.03 298.19 81.1 69.04 54.06 116.45 126.43 142.23 217.09 25.79 90.67 38.68 189.23 38.68 295.7v426.7c0 41.59 7.07 74.45 21.21 98.57 14.14 24.12 27.86 41.59 41.17 52.4l19.97 16.22zM5975.96 1191.47c-33.27 0-63.63-12.06-91.08-36.18-27.44-24.12-43.66-71.12-48.66-140.99-36.59 49.91-82.76 91.92-138.49 126.02-55.72 34.1-126.84 51.15-213.35 51.15-23.29 0-49.07-1.66-77.35-4.99-98.15-14.97-177.17-50.74-237.06-107.3-59.89-56.56-89.83-121.44-89.83-194.63 0-16.64 1.66-34.11 4.99-52.4 31.61-113.13 97.32-189.23 197.13-228.33 99.81-39.09 194.64-69.45 284.47-91.08 39.92-9.98 92.74-24.53 158.45-43.67 65.71-19.13 102.73-44.5 111.04-76.1l2.5-37.43c0-38.26-5.41-81.52-16.22-129.76-10.81-48.24-34.1-90.25-69.87-126.01-35.77-35.77-89.41-56.98-160.95-63.63h-14.97c-33.27 0-74.86 5.82-124.77 17.46-49.9 11.65-98.56 33.27-145.97 64.88-47.41 31.61-85.26 75.69-113.54 132.25 16.64-8.31 33.27-12.47 49.91-12.47 29.94 0 54.89 10.39 74.86 31.19 19.96 20.79 29.94 45.33 29.94 73.61s-9.98 52.82-29.94 73.61c-19.97 20.8-44.92 31.19-74.86 31.19-56.56 0-91.5-34.93-104.81-104.8v-7.49c0-29.94 7.07-58.22 21.21-84.84 14.14-26.61 28.7-49.9 43.67-69.87 48.24-61.55 108.13-106.05 179.66-133.5 71.54-27.44 142.24-41.17 212.11-41.17 129.76 4.99 224.58 34.52 284.47 88.59 59.88 54.06 97.73 116.03 113.53 185.9 15.81 69.87 23.71 128.09 23.71 174.67V912c0 39.92 2.49 87.33 7.48 142.23 16.64 51.57 45.75 77.36 87.34 77.36l-36.18 29.94c-24.12 19.96-56.98 29.94-98.57 29.94zm-446.66-39.92c64.88 0 123.93-17.89 177.17-53.65 53.23-35.77 96.48-81.1 129.75-136V447.86c-46.57 33.28-110.62 60.72-192.14 82.35-81.51 21.63-157.62 53.23-228.32 94.82-70.7 41.59-115.2 110.63-133.5 207.12v34.93c0 29.94 5.41 66.54 16.22 109.79 10.81 43.26 32.86 81.52 66.13 114.79 33.27 33.27 80.68 53.23 142.23 59.89h22.46zM241.76 1737.95l-24.95-2.5c-33.27-4.99-66.54-18.29-99.81-39.92-33.28-21.63-59.06-52.4-77.36-92.33-6.65-14.97-9.98-29.94-9.98-44.91 0-39.93 19.96-71.54 59.89-94.83 14.97-6.65 29.94-9.98 44.91-9.98 39.93 0 71.54 19.97 94.82 59.89 6.66 14.97 9.99 30.78 9.99 47.41 0 39.93-19.13 71.53-57.4 94.82-3.32 0-18.3 2.5-44.91 7.49h-7.49c31.61 29.94 67.38 45.75 107.3 47.41h4.99c39.93 0 78.6-17.47 116.03-52.4 37.43-34.93 70.29-73.2 98.57-114.79 28.28-41.58 49.07-74.86 62.38-99.81 33.27-58.22 81.52-153.05 144.73-284.47L169.4 135.95C139.45 84.38 104.1 50.28 63.35 33.64 22.59 17 2.21 8.69 2.21 8.69h451.65c-34.93 4.99-58.22 16.22-69.86 33.68-11.65 17.47-17.47 36.19-17.47 56.15 0 33.27 4.16 54.06 12.47 62.38l384.29 791.02 376.79-783.53 7.49-19.96c4.99-13.31 7.48-28.29 7.48-44.92 0-19.96-7.07-39.51-21.21-58.64-14.14-19.13-42-31.19-83.59-36.18h309.42s-19.55 8.31-58.64 24.95-76.11 50.74-111.04 102.31L680.94 1191.47c-61.55 129.76-117.28 235.4-167.19 316.91-11.64 18.3-30.36 45.75-56.14 82.35-25.79 36.59-56.98 70.28-93.58 101.06-36.6 30.77-77.35 46.16-122.27 46.16zM1811.22 1191.47c-163.03 0-302.35-57.81-417.96-173.42-115.62-115.62-173.43-254.94-173.43-417.97 0-164.69 57.81-304.85 173.43-420.46C1508.87 64 1648.19 6.19 1811.22 6.19c164.69 0 304.85 57.81 420.47 173.43 115.61 115.61 173.42 255.77 173.42 420.46 0 163.03-57.81 302.35-173.42 417.97-115.62 115.61-255.78 173.42-420.47 173.42zm0-32.44c109.8 0 203.37-54.89 280.73-164.69 77.35-109.79 116.03-241.21 116.03-394.26 0-154.71-38.68-286.96-116.03-396.76-77.36-109.79-170.93-164.69-280.73-164.69-108.13 0-200.87 54.9-278.23 164.69-77.35 109.8-116.03 242.05-116.03 396.76 0 153.05 38.68 284.47 116.03 394.26 77.36 109.8 170.1 164.69 278.23 164.69z"/></g></g></svg>