<svg xmlns="http://www.w3.org/2000/svg" viewBox="0 0 54.76 54.76">
  <g fill="#00BCD4">
    <path d="M27.56 12a7 7 0 0 0 0 14 7 7 0 0 0 0-14zm0 12a5 5 0 1 1 0-10.01 5 5 0 0 1 0 10.01z"/>
    <path d="M40.94 5.62A19.05 19.05 0 0 0 27.38 0c-5.12 0-9.94 2-13.56 5.62-6.7 6.7-7.54 19.3-1.8 26.95l15.36 22.19L42.72 32.6c5.76-7.67 4.92-20.28-1.78-26.98zm.16 25.81L27.38 51.24 13.64 31.4c-5.2-6.93-4.46-18.32 1.6-24.37C18.48 3.8 22.79 2 27.38 2s8.9 1.79 12.15 5.03c6.05 6.05 6.8 17.44 1.57 24.4z"/>
  </g>
</svg>
