<svg width="489.010681" height="501.535645" viewBox="0 0 489.011 501.536" fill="none" xmlns="http://www.w3.org/2000/svg" xmlns:xlink="http://www.w3.org/1999/xlink">
	<desc>
			Created with Pixso.
	</desc>
	<defs/>
	<path id="Vector 1" d="M238.51 137.53L272.01 175.53L278.26 217.03L282.7 246.53L284.51 258.53L279.01 357.03L253.51 437.53L217.01 481.03L159.5 499.53L112.51 488.03L91 474.46L87 471.93L42 443.53L12 404.53L0.5 369.03L3.33 345.95L3.5 344.53L6.5 320.03L29.5 283.03L71 244.03L153.5 161.53L181.01 132.03L204.01 122.53L238.51 137.53ZM204.01 122.53L213.01 129.44L238.51 149.03L250.01 175.53L251.9 198.53L253.51 218.03L260.8 246.53L274.51 300.03M34.5 355.03L46 332.03L59.99 313.03L79.5 286.5L85 279.03C95.67 267.36 117.31 244.03 118.51 244.03C119.71 244.03 143 224.69 154.5 215.03L181.01 213.53L184.51 269.03L172.51 313.03L138.5 366.53L102.01 388.53L79.5 384.03L59.5 357.03L61.5 318.03L85 279.03M48 274.53L79.5 264.03L115.51 240.03L142.5 213.53L143.68 212.59L164.51 196.03L178.51 188.53L191.51 188.53L211.01 215.03L208.29 258.53L207.01 279.03L195.01 330.03L183.76 346.78L172.51 363.53L138.5 388.53L106.01 398.03M74 434.03L123.01 394.53L106.01 398.03L79.5 398.03L69 398.03M79.5 398.03L54.5 369.03L46 352.53L46 332.03M253.51 218.03L249.54 240.03L246.21 258.53L238.02 304.03L235.14 320.03L234.51 323.53L229.41 336.53L221.36 357.03L216.66 369.03L209.01 388.53L199.51 399.95L179.51 423.99L159.5 448.03L115.51 454.58L89 458.53L43.31 434.71L42 434.03L36.41 428.53L26.5 418.79L12 404.53M208.29 258.53L249.54 240.03M246.21 258.53L284.51 258.53M208.29 258.53L246.21 258.53M208.29 258.53L238.02 304.03M178.51 146.03L191.51 146.03L251.9 175.53L234.51 188.53L251.9 198.53M191.51 146.03L207.01 132.03L193.01 133.03M3.5 344.53L12 323.53L29.5 297.03L48 274.53L85 240.03L111.51 212.59L127.51 196.03L164.51 158.03L178.51 146.03L193.01 133.03L213.01 129.44M42 318.03L48 274.53M59.99 313.03L42 318.03L3.33 345.95M34.5 355.03L69 398.03L74 434.03M69 398.03L36.41 428.53M34.5 355.03L26.5 418.79M46 352.53L34.5 355.03L0.5 369.03M61.5 318.03L106.01 384.03L127.51 332.03L172.51 313.03M130 332.03L138.5 369.03L138.5 366.53M43.31 434.71L74 434.03L123.01 412.54L188.01 384.03L216.66 369.03M188.01 384.03L199.51 399.95M184.51 349.03L188.01 384.03M123.01 412.54L159.5 443.53M123.01 412.54L115.51 454.58M89 458.53L87 471.93M159.5 448.03L172.51 463.53M179.51 423.99L184.51 434.03L209.01 468.03M184.51 434.03L172.51 463.53M91 474.46L147.5 466.88L172.51 463.53L203.01 471.93M112.51 488.03C113.47 488.26 119.52 488.57 127.51 488.87C139.39 489.32 155.53 489.78 165.51 490.03L203.01 471.93L209.01 468.03L219.01 458.53L246.21 418.79L253.51 404.53L270.01 339.53L274.51 302.03L279.01 264.03L260.8 246.53M253.51 218.03L278.26 217.03M260.8 246.53L282.7 246.53M235.14 320.03L246.21 326.22L267.51 338.13L270.01 339.53M274.51 302.03L246.21 326.22M229.41 336.53L246.21 326.22M267.51 338.13C265.51 339.25 239.67 374.86 227.01 392.53M233.01 355.53L227.01 392.53L219.01 458.53M246.21 418.79L227.01 392.53M253.51 404.53L227.01 392.53M267.51 338.13L233.01 355.53L221.36 357.03M227.01 392.53L184.51 434.03M147.5 466.88L165.51 490.03M147.5 466.88L127.51 488.87M140.5 185.53L148.5 196.03L142.5 213.53M111.51 212.59L143.68 212.59M93 236.03L98 244.03L79.5 266.03L79.5 286.5M48 274.53L69 283.03L79.5 286.5M69 283.03L59.99 313.03M69 283.03L79.5 264.03M46 332.03L42 318.03M34.5 355.03L3.5 345.95L0.5 369.03M183.76 346.78L235.14 320.03" stroke="#000000" stroke-opacity="1.000000" stroke-width="1.000000"/>
	<path id="Vector 2" d="M276.51 13.03L292.51 38.53L292.51 58.03L305.51 62.03L311.01 55.53L313.01 48.03L292.51 10.03L278.51 6.03C280.91 4.43 288.84 1.69 292.51 0.53L305.51 6.03L329.01 45.53L329.01 55.53M238.51 458.03L258.51 473.53L294.01 490.03L334.01 498.03L378.01 501.03L423.51 492.53L452.01 473.53L474.01 446.03L487.01 401.03L488.51 345.03L480.51 288.53L464.51 235.03L433.51 157.03L416.01 122.53L391.51 87.03L371.51 71.03L348.51 60.03L329.01 55.53L311.01 55.53M291.01 60.03L280.26 66.78L269.51 73.53L258.65 85.73L257.51 87.03L244.51 143.03L263.51 166.03L267.01 90.53M267.01 90.53L340.01 74.51L344.51 73.53L280.26 66.78M258.65 85.73L267.01 90.53L310.51 140.03M267.01 90.53L288.51 149.53L286.01 183.03L272.51 179.53L275.01 196.53L286.51 184.53L315.91 169.59L317.01 169.03L412.01 140.03M286.51 184.53L361.68 276.63L362.01 277.03L378.51 228.53M378.51 228.53L395.01 216.53L405.01 209.03C415.17 204.86 436.11 196.53 438.51 196.53M395.01 216.53L317.01 169.03M288.51 149.53L315.91 169.59M288.51 149.53L310.51 140.03L412.01 140.03M340.01 74.51L310.51 140.03M340.01 74.51L368.51 90.53M368.51 90.53L378.51 87.03M475.51 349.53L474.01 312.53L460.01 252.53L447.51 213.53L438.51 196.53L427.01 169.59L412.01 140.03L378.51 87.03L359.01 71.03L329.01 55.53M359.01 71.03L368.51 90.53L412.01 140.03M378.51 228.53L405.01 280.03M363.51 278.03L405.01 280.03L460.01 252.53M460.01 252.53L431.01 243.99L429.05 243.41L378.51 228.53L377.09 227.85L286.51 184.53M431.01 225.03L431.01 243.99M431.01 225.03L460.01 252.53M447.51 211.53C446.31 211.93 436.01 220.69 431.01 225.03L412.01 225.03L377.09 227.85M405.01 209.03L412.01 225.03M412.01 225.03L429.05 243.41M427.01 169.59L395.01 216.53M460.01 252.53L447.51 347.53L334.01 311.53M334.01 311.53L361.68 276.63M406.51 393.03L334.01 311.53L286.01 271.53L319.01 321.03L406.51 393.03M319.01 321.03L334.01 311.53M319.01 321.03L281.51 326.03L406.51 393.03L457.14 425.03M406.51 393.03L460.01 359.3L475.51 349.53L477.01 349.53L477.01 370.53L469.01 414.53L456.51 439.53L432.51 465.03L421.51 473.53L402.51 481.03C399.71 481.03 390.01 482.36 385.51 483.03L361.68 487.03L311.51 483.77L302.01 483.16L300.01 483.03L265.51 469.53L238.51 456.03L289.51 422.53M460.01 359.3L457.14 425.03L456.51 439.53M432.51 465.03L423.51 449.53L406.51 393.03M423.51 449.53L457.14 425.03M270.01 393.03L289.51 422.53L302.01 429.03L303.79 429.12L328.01 430.43L376.01 433.03M361.68 487.03L376.01 433.03L406.51 393.03M376.01 433.03L385.51 483.03M423.51 449.53L421.51 473.53M402.51 481.03L423.51 449.53M303.79 429.12L302.01 483.16M328.01 430.43L361.68 487.03M328.01 429.03L311.51 483.77" stroke="#000000" stroke-opacity="1.000000" stroke-width="1.000000"/>
</svg>
