<svg width="347.419434" height="293.187256" viewBox="0 0 347 100" fill="none" xmlns="http://www.w3.org/2000/svg" xmlns:xlink="http://www.w3.org/1999/xlink">
	<desc>
			Created with Pixso.
	</desc>
	<defs/>
	<path id="Vector 3" d="M54.19 139.2L51.38 164.18L78.97 190.69L106.25 216.81L160.19 256.6L174.83 263.01L220.92 276.55L234.61 277.59L241.69 276.82L281.9 267.16C289.37 260.68 301.45 250.15 310.26 242.32C316.18 237.06 320.62 233.01 321.21 232.22L329.05 208.19L330.51 203.72L346.91 153.43L345.1 104.41L331.35 69.76L314.51 53.72L313.48 52.73L295.61 35.7L254.49 21.63L197.93 17.67L82.34 5.95L42.53 0.51L18.89 7.66L2 40.99L0.5 91.44L22.09 127.42L37.43 153L43.67 163.4L110.48 235.99L181.16 282.08L236.75 292.66L292.53 270.71L321.21 232.22M18.89 7.66L16.39 18.67L9.31 49.87L17.34 77.57L30.51 96.53L41.67 112.6L54.19 139.2L77.7 189.14M296.42 80.37L272.99 69.86L250.22 64L218.41 55.82L209.45 53.51C193.87 51.23 162.48 46.84 161.56 47.6C160.64 48.35 130.52 48.11 115.57 47.89L94.32 63.43L126.91 108.49L164.06 134.9L224.09 154.79L266.02 148.77L280.39 131.12L278.54 97.67L252.23 68.82L209.45 53.51M234.92 26.72L204.13 38.46L161.32 42.62L123.8 39.17L122.31 39.19L95.84 39.52L80.35 42.56L70.4 50.75L72.31 83.5L102.03 115.37L116.04 130.39L157.64 162.21L176.89 168.05L196.15 173.9L238.07 171.77L268.99 158.63M316.37 166.26L253.75 166.64L268.99 158.63L289.29 141.93L297.32 135.31M289.29 141.93L290 103.78L286.02 85.69L272.99 69.86M41.67 112.6L58.69 127.09L72.99 139.27M102.03 115.37L58.69 127.09M102.03 115.37L72.99 139.27L43.67 163.4M72.99 139.27L108.18 169.24L120.55 179.78L123.26 182.08L135.43 188.91L154.61 199.67L165.84 205.97L184.09 216.2L198.62 219.03L229.21 224.99L259.8 230.95L297.66 208.28L320.46 194.63L340.31 147.45L340.88 146.1L341.66 138.32L343.06 124.56L345.1 104.41M102.03 115.37L108.18 169.24M53.34 9.74L43.39 17.93L15.89 78.77L37.47 77.84L30.51 96.53M43.39 17.93L22.63 16.89L33.98 8.84M313.48 52.73L293.63 41.87L263.39 32.44L234.92 26.72L184.67 23.4L146.95 18.92L124.17 16.21L71.69 10.18L53.34 9.74L33.98 8.84L16.39 18.67M267.16 56.53L234.92 26.72M250.22 64L267.16 56.53L314.51 53.72M296.42 80.37L297.32 135.31L316.37 166.26M297.32 135.31L341.66 138.32M296.42 80.37L343.06 124.56M286.02 85.69L296.42 80.37L331.35 69.76M252.23 68.82L260.1 147.82L210.59 121.22L164.06 134.9M208.68 122.79L225.68 156.72L224.09 154.79M340.31 147.45L316.37 166.26L265.2 180.55L197.31 199.49L165.84 205.97M197.31 199.49L198.62 219.03M177.75 170.26L197.31 199.49M265.2 180.55L256.94 227.48M265.2 180.55L297.66 208.28M320.46 194.63L330.51 203.72M259.8 230.95L259.7 251.11M229.21 224.99L231.76 235.89L234.61 277.59M231.76 235.89L259.7 251.11M329.05 208.19L280.97 237.94L259.7 251.11L241.69 276.82M41.67 112.6L22.09 127.42M54.19 139.2L37.43 153M120.55 179.78L116.01 191.54L107.27 214.15L106.25 216.81M78.97 190.69L116.01 191.54M135.43 188.91L116.01 191.54M107.27 214.15C109.52 213.76 151.93 224.97 172.85 230.63M144.75 205.85L172.85 230.63L220.92 276.55M174.83 263.01L172.85 230.63M160.19 256.6L172.85 230.63M107.27 214.15L144.75 205.85L154.61 199.67M172.85 230.63L231.76 235.89M280.97 237.94L281.9 267.16M280.97 237.94L310.26 242.32M107.54 16.29L108.09 29.44L123.8 39.17M146.95 18.92L122.31 39.19M176 25.35L177.26 34.68L205.4 40.01L218.41 55.82M234.92 26.72L224.25 46.52L218.41 55.82M224.25 46.52L250.22 64M224.25 46.52L204.13 38.46M272.99 69.86L267.16 56.53M296.42 80.37L314.38 53.83L331.35 69.76M176.89 168.05L120.55 179.78" stroke="#000000" stroke-opacity="1.000000" stroke-width="1.000000"/>
</svg>
