<svg xmlns="http://www.w3.org/2000/svg" width="84.015" height="74.027" fill="none" viewBox="0 0 84.014 74.027"><path stroke="#000" d="m44.78 36.4 3.1 2.55-.77 5.54-.76 5.47-2.81 9.48-1.24 2.08-4.63 5.8-1.7 1.39-1.02.57-6.38 2.63c-1.69-.03-4.44-.1-6.46-.16-1.36-.05-2.39-.09-2.55-.13l-3.66-1.98-.68-.36-7.65-4.15-5.11-5.69-1.95-5.17.48-3.37.03-.21.51-3.57 3.91-5.4 7.06-5.69L26.53 24l4.68-4.3 3.91-1.39 5.87 2.19 5.7 5.54 1.06 6.06.75 4.3.31 1.75-.93 14.37-4.34 11.74-6.21 6.34-9.78 2.7-7.99-1.68m15.56-53.31 1.53 1.01 4.34 2.86 1.95 3.86.33 3.36.27 2.84 1.24 4.16 2.33 7.8M6.29 52.22l1.96-3.35 2.37-2.77 3.32-3.87.94-1.09c1.81-1.7 5.49-5.11 5.7-5.11.2 0 4.16-2.82 6.12-4.23l4.51-.21.59 8.09-2.04 6.42-5.78 7.8-6.21 3.21-3.83-.66-3.4-3.93.34-5.69 4-5.69m-6.29-.66 5.35-1.53 6.13-3.5 4.59-3.86.2-.14 3.54-2.42 2.38-1.09h2.21l3.32 3.86-.46 6.35-.22 2.99-2.04 7.44-1.91 2.44-1.92 2.44-5.78 3.65-5.53 1.39m-5.44 5.25 8.33-5.76-2.89.51h-6.29m1.78 0-4.25-4.23-1.44-2.41v-2.99m35.29-16.63-.67 3.21-.57 2.7m-6.45 0 7.02-2.7m-7.02 2.7h12.96m-6.51 0-1.4 6.64-.49 2.33-.1.51-.87 1.9-1.37 2.99-.8 1.75-1.3 2.84-1.62 1.67-3.4 3.5-3.4 3.51-7.48.95-4.51.58-7.77-3.47-.22-.1-.95-.81-1.69-1.42-2.47-2.08m33.39-21.29 5.05 6.64M30.78 21.74h2.21l10.28 4.3-2.96 1.9 2.96 1.46m-10.28-7.66 2.64-2.04-2.38.14M1.02 50.69l1.44-3.06 2.98-3.86 3.15-3.29 6.29-5.03 4.51-4 2.72-2.42 6.29-5.54 2.38-1.75 2.47-1.9 3.4-.52M7.57 46.83l1.02-6.35m2.03 5.62-3.05.73L.99 50.9m5.3 1.32 5.87 6.28.85 5.25m-.85-5.25-5.54 4.44m-.33-10.72-1.36 9.3m3.32-9.66-1.96.36-5.78 2.05m10.37-7.44 7.57 9.62 3.66-7.58 7.65-2.77m-7.23 2.77 1.45 5.4v-.37M7.79 63.85l5.22-.1 8.33-3.14 11.06-4.16 4.87-2.18m-4.87 2.18 1.95 2.33m-2.55-7.43.6 5.1m-11.06 4.16 6.21 4.52m-6.21-4.52-1.27 6.13m-4.51.58-.34 1.96m12.33-3.49 2.21 2.26m1.19-5.77.85 1.47 4.17 4.96m-4.17-4.96-2.04 4.3M15.9 69.64l9.61-1.1 4.25-.49 5.19 1.23m8.59-37.04 4.21-.14m-2.97 4.3h3.72m-8.09 10.72 1.89.9 3.62 1.74.43.2m.76-5.47-4.81 3.53m-2.86 1.51 2.86-1.51m3.62 1.74c-.34.16-4.73 5.36-6.89 7.93m1.02-5.39-1.02 5.39-1.36 9.63m4.63-5.8-3.27-3.83m4.51 1.75-4.51-1.75m6.89-7.93-5.87 2.54-1.98.22m.96 5.17-7.23 6.06m-6.29 4.79 3.06 3.37m-3.06-3.37-3.4 3.21m2.21-44.25 1.36 1.53-1.02 2.56m-5.27-.14h5.47m-8.62 3.42.85 1.16-3.15 3.21v2.99m-5.35-1.75 3.57 1.24 1.78.51m-1.78-.51-1.54 4.38m1.54-4.38 1.78-2.77m-5.69 9.92-.68-2.04m-1.28 5.39L1.02 50.9l-.51 3.37m31.17-3.25 8.73-3.9"/><path stroke="#000" d="m47.45 2.34 2.72 3.72v2.85l2.21.58.94-.95.34-1.09-3.49-5.55-2.38-.58c.41-.23 1.76-.63 2.38-.8l2.21.8 4 5.76v1.46M40.99 67.25l3.4 2.26 6.04 2.4 6.8 1.17 7.48.44 7.74-1.24 4.85-2.77 3.74-4.01 2.21-6.57.26-8.16-1.36-8.24-2.72-7.81-5.28-11.37-2.97-5.04-4.17-5.17-3.4-2.34-3.91-1.6-3.32-.66h-3.06m-3.4.66-1.83.98-1.83.99-1.85 1.78-.19.19-2.21 8.16 3.23 3.36.6-11.01m0 0 12.41-2.34.77-.14-10.93-.99m-3.68 2.77 1.43.7 7.39 7.22m-7.39-7.22 3.65 8.6-.42 4.89-2.3-.51.43 2.48 1.95-1.75 5-2.18.19-.08 16.16-4.23m-21.35 6.49 12.79 13.43.05.06 2.81-7.08m0 0 2.81-1.75 1.7-1.09c1.73-.61 5.29-1.82 5.69-1.82m-7.39 2.91L54.34 25.1m-4.85-2.85 4.66 2.93m-4.66-2.93 3.74-1.38H70.5m-12.25-9.56-5.02 9.56m5.02-9.56 4.85 2.34m0 0 1.7-.51m16.5 38.28-.26-5.39-2.38-8.76-2.13-5.68L75 29.11l-1.95-3.93-2.55-4.31-5.7-7.73-3.32-2.34-5.1-2.26m5.1 2.26 1.62 2.85 7.4 7.22m-5.7 12.9 4.51 7.52m-7.06-.3 7.06.3 9.35-4.02m0 0-4.93-1.24-.33-.08-8.6-2.18-.24-.1-15.41-6.31m24.58 5.9v2.77m0-2.77 4.93 4.01m-2.13-5.98c-.2.06-1.95 1.34-2.8 1.97H70.5l-5.94.41m4.75-2.74 1.19 2.33m0 0 2.9 2.69m-.35-10.77-5.44 6.84m11.05 5.25-2.13 13.86-19.3-5.25m0 0 4.71-5.09m7.62 16.98L57.23 45.88l-8.16-5.83 5.61 7.22 14.88 10.5m-14.88-10.5 2.55-1.39m-2.55 1.39-6.38.72 21.26 9.78 8.61 4.66m-8.61-4.66 9.1-4.92 2.64-1.43h.25v3.07l-1.36 6.41-2.12 3.65-4.09 3.72-1.87 1.24-3.23 1.09c-.47 0-2.12.2-2.89.29l-4.05.59L53.4 71l-1.61-.09-.34-.02-5.87-1.97-4.59-1.96 8.67-4.89m29-9.22-.49 9.58-.1 2.12m-4.09 3.72-1.53-2.26-2.89-8.24m2.89 8.24 5.72-3.58m-31.82-4.66 3.31 4.3 2.13.95.3.01 4.12.19 8.16.38m-2.43 7.88 2.43-7.88 5.19-5.83m-5.19 5.83 1.62 7.29m6.46-4.88-.34 3.5m-3.23 1.09 3.57-4.59m-20.36-2.98-.3 7.88m4.42-7.69 5.73 8.26m-5.73-8.46L53.4 71"/></svg>